<mxfile host="app.diagrams.net" agent="Mozilla/5.0 (Macintosh; Intel Mac OS X 10_15_7) AppleWebKit/605.1.15 (KHTML, like Gecko) Version/17.4.1 Safari/605.1.15" version="24.7.6">
  <diagram name="Page-1" id="UyjbCrWxQkd2nFwNjTcj">
    <mxGraphModel dx="941" dy="692" grid="1" gridSize="10" guides="1" tooltips="1" connect="1" arrows="1" fold="1" page="1" pageScale="1" pageWidth="850" pageHeight="1100" math="0" shadow="0">
      <root>
        <mxCell id="0" />
        <mxCell id="1" parent="0" />
        <mxCell id="CQEVtiI_VMhaONXtUqpE-1" value="&lt;b&gt;Plan:&lt;/b&gt;&lt;div&gt;1. General Requirements&lt;/div&gt;&lt;div&gt;2. Functional Requirements&lt;/div&gt;&lt;div&gt;3. Component Architecture&lt;/div&gt;&lt;div&gt;4. Web Design&lt;/div&gt;&lt;div&gt;5. DataBase design.&lt;/div&gt;&lt;div&gt;6. API description&lt;/div&gt;&lt;div&gt;7. Optimization&lt;/div&gt;&lt;div&gt;8. Accessibility&lt;/div&gt;" style="whiteSpace=wrap;html=1;aspect=fixed;align=left;" vertex="1" parent="1">
          <mxGeometry x="40" y="40" width="170" height="170" as="geometry" />
        </mxCell>
        <mxCell id="CQEVtiI_VMhaONXtUqpE-2" value="&lt;b&gt;General Requirements:&lt;/b&gt;&lt;div&gt;1. We can add basic info â€” social networks, cover, title, gallery&lt;/div&gt;&lt;div&gt;2. We can add articles.&lt;/div&gt;&lt;div&gt;3. Each article is collection of blocks: text, gallery, image&lt;/div&gt;&lt;div&gt;4. We can share articles at Social Networks.&lt;/div&gt;" style="whiteSpace=wrap;html=1;aspect=fixed;align=left;" vertex="1" parent="1">
          <mxGeometry x="240" y="40" width="170" height="170" as="geometry" />
        </mxCell>
        <mxCell id="CQEVtiI_VMhaONXtUqpE-3" value="&lt;b&gt;Functional Requirements:&lt;/b&gt;&lt;div&gt;1. Support modern browsers.&lt;/div&gt;&lt;div&gt;2. Responsive layouts (phone, tablet, desktop).&lt;/div&gt;&lt;div&gt;3. Modern and cute design.&lt;/div&gt;&lt;div&gt;4. Something else.&lt;/div&gt;" style="whiteSpace=wrap;html=1;aspect=fixed;align=left;" vertex="1" parent="1">
          <mxGeometry x="440" y="40" width="170" height="170" as="geometry" />
        </mxCell>
        <mxCell id="CQEVtiI_VMhaONXtUqpE-6" value="Actor" style="shape=umlActor;verticalLabelPosition=bottom;verticalAlign=top;html=1;outlineConnect=0;" vertex="1" parent="1">
          <mxGeometry x="50" y="310" width="30" height="60" as="geometry" />
        </mxCell>
        <mxCell id="CQEVtiI_VMhaONXtUqpE-8" value="&lt;b&gt;Diagram&lt;/b&gt;" style="text;strokeColor=none;fillColor=none;align=left;verticalAlign=middle;spacingLeft=4;spacingRight=4;overflow=hidden;points=[[0,0.5],[1,0.5]];portConstraint=eastwest;rotatable=0;whiteSpace=wrap;html=1;" vertex="1" parent="1">
          <mxGeometry x="40" y="240" width="80" height="30" as="geometry" />
        </mxCell>
        <mxCell id="CQEVtiI_VMhaONXtUqpE-10" value="Browser" style="swimlane;whiteSpace=wrap;html=1;" vertex="1" parent="1">
          <mxGeometry x="150" y="280" width="120" height="120" as="geometry" />
        </mxCell>
        <mxCell id="CQEVtiI_VMhaONXtUqpE-11" value="Blog" style="text;html=1;align=center;verticalAlign=middle;whiteSpace=wrap;rounded=0;" vertex="1" parent="CQEVtiI_VMhaONXtUqpE-10">
          <mxGeometry x="30" y="50" width="60" height="30" as="geometry" />
        </mxCell>
        <mxCell id="CQEVtiI_VMhaONXtUqpE-13" value="BackEnd&lt;div&gt;(NodeJS Server)&lt;/div&gt;" style="whiteSpace=wrap;html=1;aspect=fixed;" vertex="1" parent="1">
          <mxGeometry x="330" y="280" width="120" height="120" as="geometry" />
        </mxCell>
        <mxCell id="CQEVtiI_VMhaONXtUqpE-14" value="PSQL" style="shape=cylinder3;whiteSpace=wrap;html=1;boundedLbl=1;backgroundOutline=1;size=15;" vertex="1" parent="1">
          <mxGeometry x="530" y="300" width="60" height="80" as="geometry" />
        </mxCell>
        <mxCell id="CQEVtiI_VMhaONXtUqpE-15" value="" style="endArrow=classic;html=1;rounded=0;entryX=0;entryY=0.5;entryDx=0;entryDy=0;entryPerimeter=0;exitX=1;exitY=0.5;exitDx=0;exitDy=0;" edge="1" parent="1" source="CQEVtiI_VMhaONXtUqpE-13" target="CQEVtiI_VMhaONXtUqpE-14">
          <mxGeometry width="50" height="50" relative="1" as="geometry">
            <mxPoint x="450" y="320" as="sourcePoint" />
            <mxPoint x="500" y="270" as="targetPoint" />
          </mxGeometry>
        </mxCell>
        <mxCell id="CQEVtiI_VMhaONXtUqpE-16" value="" style="endArrow=classic;html=1;rounded=0;exitX=1;exitY=0.5;exitDx=0;exitDy=0;entryX=0;entryY=0.5;entryDx=0;entryDy=0;" edge="1" parent="1" source="CQEVtiI_VMhaONXtUqpE-10" target="CQEVtiI_VMhaONXtUqpE-13">
          <mxGeometry width="50" height="50" relative="1" as="geometry">
            <mxPoint x="450" y="320" as="sourcePoint" />
            <mxPoint x="500" y="270" as="targetPoint" />
          </mxGeometry>
        </mxCell>
      </root>
    </mxGraphModel>
  </diagram>
</mxfile>
